<svg version="1.1" id="Layer_1" xmlns="http://www.w3.org/2000/svg" xmlns:xlink="http://www.w3.org/1999/xlink" x="0px" y="0px"
	 width="100%" viewBox="0 0 1536 1024" enable-background="new 0 0 1536 1024" xml:space="preserve">
<path fill="#FEFEFE" opacity="1.000000" stroke="none" 
	d="
M935.000000,1025.000000 
	C623.333313,1025.000000 312.166656,1025.000000 1.000000,1025.000000 
	C1.000000,683.666687 1.000000,342.333344 1.000000,1.000000 
	C513.000000,1.000000 1025.000000,1.000000 1537.000000,1.000000 
	C1537.000000,342.333344 1537.000000,683.666687 1537.000000,1025.000000 
	C1336.500000,1025.000000 1136.000000,1025.000000 935.000000,1025.000000 
M650.034851,557.037415 
	C650.034851,557.037415 650.040955,557.137634 650.584106,556.983643 
	C650.811401,556.727417 651.038696,556.471130 651.122009,556.252380 
	C651.122009,556.252380 651.214050,556.369263 651.840454,556.312744 
	C652.297546,555.897156 652.754639,555.481628 653.844177,554.885559 
	C665.980835,544.342407 671.778931,530.607300 674.186401,514.242065 
	C676.430115,498.680908 675.074951,483.831421 664.348206,471.367920 
	C649.457764,454.066742 617.832825,453.695709 599.094482,470.689880 
	C590.130310,477.861481 584.528381,487.236938 580.809082,498.765350 
	C579.597107,507.869293 577.090515,517.020996 577.424500,526.067871 
	C578.301514,549.830017 591.124390,564.267151 612.862671,567.432678 
	C616.310974,567.934875 618.373962,569.242981 620.420654,571.978455 
	C632.308533,587.866699 652.475647,590.905334 670.330872,578.668457 
	C665.829224,576.873352 662.152710,575.296936 658.398499,573.934448 
	C651.717896,571.509949 645.168518,568.906921 640.020752,563.816284 
	C642.999207,561.738159 645.619507,559.909851 648.626221,558.093933 
	C648.626221,558.093933 648.994080,557.974548 649.560120,558.000977 
	C649.751648,557.682983 649.943237,557.365051 650.034851,557.037415 
M707.299622,521.287292 
	C708.570740,511.532471 709.841858,501.777618 711.126831,491.916321 
	C702.666565,491.916321 695.111511,491.916321 687.292480,491.916321 
	C686.584167,498.857910 685.913086,505.434387 685.025085,512.809387 
	C684.202332,519.818542 683.379517,526.827759 682.257385,534.672852 
	C682.140625,539.958862 681.439758,545.311218 682.030884,550.516846 
	C683.194336,560.763062 690.282166,566.716064 700.538269,567.171875 
	C707.095215,567.463257 712.713196,565.220520 718.386169,561.118042 
	C720.732727,558.938965 723.079224,556.759888 726.077026,553.975952 
	C726.077026,558.269043 726.077026,561.669189 726.077026,565.180054 
	C732.873657,565.180054 739.266052,565.180054 745.820007,565.180054 
	C746.402771,558.579102 746.955811,552.314575 747.818970,545.227539 
	C748.536072,538.481384 749.253174,531.735229 750.311890,524.284180 
	C751.686035,513.601562 753.060181,502.918915 754.471497,491.947571 
	C746.472046,491.947571 738.930786,491.947571 731.066101,491.947571 
	C730.158936,500.488007 729.283447,508.730255 728.129333,517.764465 
	C727.360962,523.403381 726.592590,529.042236 725.361572,535.216858 
	C722.526489,541.753174 720.122986,548.761353 710.379395,548.045471 
	C708.934570,546.701050 707.489746,545.356628 706.010376,543.073975 
	C706.003723,538.372253 705.997070,533.670471 706.247559,528.596191 
	C706.217590,528.171814 706.187622,527.747498 706.519653,526.492126 
	C706.667542,524.993774 706.815430,523.495483 707.299622,521.287292 
M884.080017,543.408508 
	C884.123840,542.979492 884.167664,542.550537 884.805725,541.778931 
	C885.007324,539.683777 885.208862,537.588623 885.413391,535.463440 
	C891.939453,533.696533 892.192505,533.830261 894.420776,539.715515 
	C897.188721,547.026184 899.910278,554.356628 902.846069,561.599731 
	C903.455872,563.104187 904.873718,565.364014 905.991211,565.407104 
	C914.350342,565.729614 922.727600,565.582581 931.334229,565.582581 
	C925.217468,552.761841 919.326538,540.665161 913.759033,528.421387 
	C913.078979,526.925720 913.472900,524.131348 914.494385,522.806274 
	C920.283875,515.296021 926.432495,508.063324 932.423401,500.707245 
	C934.640625,497.984711 936.761230,495.183563 939.554932,491.614807 
	C931.002747,491.614807 923.692871,491.409668 916.408875,491.753326 
	C914.494019,491.843658 912.039856,493.173859 910.893372,494.720459 
	C905.447571,502.067230 900.263733,509.616394 895.211853,517.242676 
	C893.318726,520.100647 891.186707,520.758606 887.782776,519.502380 
	C890.506653,498.700409 893.220459,477.975464 896.048645,456.376770 
	C888.383850,456.928131 881.289612,457.352905 874.224976,458.069397 
	C873.456055,458.147369 872.382446,459.849396 872.252197,460.897766 
	C870.467896,475.257904 868.824768,489.635590 866.934998,504.655090 
	C866.953613,505.104919 866.972290,505.554718 866.809143,506.807861 
	C866.439026,510.186462 866.068909,513.565063 865.283569,517.570740 
	C863.343933,533.457397 861.404358,549.344055 859.453674,565.321228 
	C867.601746,565.321228 875.093384,565.321228 882.763062,565.321228 
	C883.230591,559.580688 883.659790,554.311340 884.244080,548.213989 
	C884.136108,546.821106 884.028137,545.428223 884.080017,543.408508 
M302.012756,544.676270 
	C302.042297,545.109253 302.071838,545.542175 301.926453,546.637329 
	C301.955963,547.090027 301.985443,547.542725 301.765594,548.779297 
	C301.528198,551.867981 301.290833,554.956726 300.819427,558.834229 
	C299.792786,570.278076 298.978088,581.745850 297.689056,593.160095 
	C295.826721,609.650879 305.762878,621.060120 322.300964,621.058289 
	C390.294739,621.050720 458.288574,621.016968 526.282166,621.136353 
	C531.937927,621.146301 536.927917,619.887085 541.827820,617.168091 
	C550.773010,612.204407 555.220276,599.298584 551.035583,589.274292 
	C550.985229,588.491394 550.934937,587.708435 551.004578,586.307861 
	C551.023682,584.887573 551.042847,583.467346 551.175110,581.240173 
	C550.941528,578.706238 550.735352,576.169373 550.468323,573.638977 
	C550.022583,569.414917 549.537903,565.194885 549.159058,560.079407 
	C548.806763,556.712097 548.454529,553.344788 548.183167,549.072144 
	C547.606628,543.634644 547.030151,538.197083 546.500977,531.909119 
	C546.058228,528.680847 545.527222,525.461609 545.193604,522.222107 
	C544.707092,517.496826 544.362488,512.756897 544.042725,507.119690 
	C543.607422,503.075897 543.172119,499.032074 542.866455,494.116302 
	C542.055603,486.067688 541.244690,478.019073 540.495728,469.042633 
	C539.289673,456.362000 538.083557,443.681335 536.966614,430.167114 
	C536.042419,419.482544 529.362000,411.027039 519.402344,410.218811 
	C508.719360,409.351929 497.911560,410.023193 486.968933,410.023193 
	C486.968933,414.798798 486.968933,419.403534 486.729126,424.799011 
	C486.626556,428.272949 486.553497,431.748108 486.413757,435.220551 
	C486.241852,439.493195 483.583069,442.055542 479.813354,442.819946 
	C477.452667,443.298615 473.933716,443.124878 472.462646,441.683807 
	C470.508636,439.769653 469.327148,436.397369 469.079132,433.541656 
	C468.437836,426.158569 468.490875,418.715149 468.202332,410.554779 
	C467.782104,410.344940 467.361877,410.135101 466.343842,409.692963 
	C465.928955,409.760529 465.514038,409.828094 464.150421,409.779480 
	C456.410492,409.826263 448.670563,409.873016 440.031982,409.698334 
	C435.702545,409.777252 431.373108,409.856140 426.139893,409.829285 
	C423.415894,409.867950 420.691925,409.906586 417.144257,409.714294 
	C415.444794,409.784180 413.745300,409.854065 411.106873,409.814270 
	C402.098907,409.880432 393.090942,409.946625 383.305389,409.785858 
	C382.507538,409.865234 381.709717,409.944611 380.505524,409.986023 
	C380.505524,409.986023 380.174652,410.225037 379.475372,410.652954 
	C379.354126,417.573669 379.004883,424.500641 379.195374,431.412750 
	C379.313507,435.699677 378.288300,439.196838 374.261566,442.109009 
	C371.163574,444.345612 368.043976,444.971436 365.223328,441.789886 
	C363.629913,439.992676 362.334503,437.931305 361.006500,435.057892 
	C361.006500,426.790649 361.006500,418.523407 361.006500,409.528259 
	C348.633240,410.408997 336.612579,407.775513 324.136627,411.805603 
	C315.439056,415.128418 312.117737,422.238831 311.310364,430.760681 
	C310.422241,440.134888 310.002655,449.553497 309.134491,459.819855 
	C308.101990,473.208649 307.069519,486.597443 305.792480,500.767456 
	C305.531097,504.517975 305.269745,508.268524 304.707794,512.789795 
	C304.129150,520.522400 303.550537,528.255005 302.722229,536.739929 
	C302.542236,539.174683 302.362244,541.609497 302.012756,544.676270 
M782.880859,546.173767 
	C785.173035,528.240051 787.465210,510.306366 789.799133,492.045471 
	C781.818359,492.045471 774.309143,492.045471 766.562805,492.045471 
	C765.044434,505.323212 763.574158,518.180603 761.758484,531.743286 
	C760.307251,542.885071 758.856018,554.026855 757.396179,565.234985 
	C765.556274,565.234985 773.078003,565.234985 780.791016,565.234985 
	C781.436951,558.862061 782.038513,552.926086 782.880859,546.173767 
M800.242554,510.341217 
	C794.529480,518.926392 793.467834,528.527832 793.828735,538.532898 
	C794.268677,550.729370 801.986511,561.421021 813.652344,565.065369 
	C825.824707,568.867798 837.821411,567.509521 849.517456,563.604797 
	C849.517456,557.519470 849.517456,551.834229 849.517456,545.771912 
	C847.624390,546.331177 846.205627,546.721069 844.805359,547.168518 
	C827.066772,552.836731 818.106750,546.423584 818.393372,527.579590 
	C818.472839,527.049011 818.552368,526.518372 818.899658,525.361694 
	C818.949707,524.912476 818.999756,524.463196 819.468811,523.474060 
	C825.382874,508.820557 833.861694,505.525146 853.293457,510.627747 
	C854.908997,504.986115 856.526917,499.336121 858.213867,493.445312 
	C850.212036,489.809723 842.267273,489.479187 834.326355,490.287445 
	C820.244324,491.720734 808.585632,497.622925 800.242554,510.341217 
M984.872253,478.085327 
	C992.798340,479.306671 1000.724426,480.528046 1009.402710,481.865326 
	C1010.978455,476.626007 1012.859314,470.372223 1014.802124,463.912231 
	C1000.804321,458.036652 987.096863,456.821625 972.234253,460.967682 
	C970.504272,461.548157 968.702515,461.973114 967.055908,462.733978 
	C955.528381,468.060852 947.206665,475.912415 945.842896,489.408752 
	C944.459900,503.096130 951.702454,511.648376 962.553284,518.146912 
	C964.262207,519.170410 966.084167,520.004089 967.802551,521.013062 
	C972.235962,523.616272 977.059814,525.765076 980.961609,529.015198 
	C987.343689,534.331360 985.954773,542.594299 978.328003,545.904175 
	C975.360657,547.191956 971.793457,548.271057 968.700989,547.874390 
	C959.780640,546.730286 950.962952,544.786438 941.550171,543.054565 
	C939.829956,548.288147 937.727417,554.684814 935.435974,561.656128 
	C955.279602,568.481567 974.776001,570.621399 993.747437,560.658630 
	C1012.995300,550.550659 1017.678650,522.018799 996.603333,508.323303 
	C992.298462,505.525879 987.556458,503.409302 983.091675,500.846924 
	C980.222656,499.200317 977.157288,497.673920 974.766968,495.459839 
	C969.230713,490.331909 970.531311,483.223083 977.383789,480.095886 
	C979.476990,479.140686 981.786682,478.659637 984.872253,478.085327 
M1080.302612,494.078613 
	C1067.256104,487.393768 1056.452148,491.283386 1046.470459,501.119415 
	C1048.413330,486.706451 1050.356079,472.293518 1052.433105,456.884064 
	C1044.198364,457.451782 1036.819580,457.960510 1029.240967,458.483002 
	C1024.692017,494.372437 1020.206665,529.761292 1015.705994,565.270508 
	C1023.878784,565.270508 1031.256958,565.270508 1038.763794,565.270508 
	C1040.212524,553.626892 1041.343750,542.367493 1043.124146,531.211731 
	C1043.922607,526.208862 1045.454834,521.137939 1047.668335,516.591614 
	C1050.629150,510.510162 1055.354126,508.471222 1059.996338,510.018280 
	C1063.996460,511.351349 1065.389526,515.377808 1064.507935,522.446533 
	C1062.740356,536.619324 1061.053711,550.802185 1059.241455,565.741455 
	C1065.852539,565.741455 1072.145996,565.598022 1078.428101,565.803162 
	C1081.475342,565.902649 1082.524170,564.659180 1082.792358,561.831848 
	C1083.279785,556.696899 1084.019043,551.585999 1084.640991,546.463623 
	C1085.865356,536.382629 1087.370117,526.324646 1088.210205,516.211487 
	C1088.884399,508.094696 1088.173218,500.106750 1080.302612,494.078613 
M1200.056763,500.604034 
	C1200.056763,498.191742 1200.056763,495.779419 1200.056763,493.426697 
	C1192.654907,493.426697 1186.063965,493.426697 1180.017822,493.426697 
	C1176.103516,527.097778 1172.238037,560.348450 1168.291504,594.296631 
	C1174.162354,593.909119 1179.599243,593.124451 1185.001831,593.313904 
	C1190.364380,593.501770 1191.630981,591.057739 1191.916870,586.306519 
	C1192.332031,579.409912 1193.442993,572.555176 1194.247559,565.763245 
	C1210.878540,566.113037 1218.211182,564.806702 1225.765747,560.290222 
	C1241.377808,550.956604 1249.383179,532.156067 1245.935913,512.325317 
	C1244.295044,502.886017 1239.641968,495.280273 1230.073853,492.315735 
	C1220.492432,489.347046 1211.662720,491.331238 1204.238525,498.470001 
	C1203.048706,499.614014 1201.532593,500.418671 1200.056763,500.604034 
M1163.351440,543.825012 
	C1164.851318,538.395508 1167.020752,533.051514 1167.727051,527.520691 
	C1169.963501,510.009888 1162.169556,496.406494 1147.435791,492.486115 
	C1134.158203,488.953156 1121.574707,491.166321 1110.696899,499.967896 
	C1097.273926,510.828796 1093.466797,525.629944 1095.114136,541.961121 
	C1096.501465,555.716370 1107.061035,565.130249 1120.874146,567.213501 
	C1135.703735,569.450012 1155.857300,560.992493 1163.351440,543.825012 
M412.869568,371.930481 
	C418.493378,371.671112 424.245453,370.522583 429.717987,371.312012 
	C449.515808,374.167938 462.517395,385.463959 468.795898,404.529602 
	C469.327301,406.143219 470.717651,408.466156 471.982727,408.658447 
	C475.651337,409.216095 479.459473,408.855927 483.238312,408.855927 
	C481.579956,379.719818 452.065308,355.825531 420.876831,356.993744 
	C386.596466,358.277832 364.490631,387.790283 364.219025,408.897003 
	C366.852966,408.897003 369.516785,408.646301 372.113861,408.955933 
	C375.973785,409.416168 377.410095,407.842560 378.620087,404.162720 
	C384.045471,387.663330 395.194427,376.838715 412.869568,371.930481 
M784.194824,480.787018 
	C789.690613,478.912384 793.227295,475.275269 793.919189,469.393829 
	C794.474854,464.669922 793.226929,460.513428 789.155273,457.574005 
	C784.408508,454.147186 777.744934,454.289001 772.905945,457.924103 
	C768.114319,461.523560 766.161682,468.081177 768.276001,473.473480 
	C770.498596,479.141907 775.653198,481.675232 784.194824,480.787018 
z"/>
<path fill="#6437D9" opacity="1.000000" stroke="none" 
	d="
M550.892273,590.049927 
	C555.220276,599.298584 550.773010,612.204407 541.827820,617.168091 
	C536.927917,619.887085 531.937927,621.146301 526.282166,621.136353 
	C458.288574,621.016968 390.294739,621.050720 322.300964,621.058289 
	C305.762878,621.060120 295.826721,609.650879 297.689056,593.160095 
	C298.978088,581.745850 299.792786,570.278076 301.208923,558.701660 
	C301.589020,562.327637 303.202911,564.453003 307.113312,565.289612 
	C309.265259,565.750000 311.174683,567.466614 313.126221,568.721436 
	C329.332275,579.141418 347.430878,585.434631 365.401825,591.684448 
	C378.296051,596.168823 391.572205,599.736572 405.522186,600.506348 
	C420.350922,601.324585 435.077606,603.913330 449.904266,604.871948 
	C464.148346,605.792786 478.490021,606.292847 492.739594,605.730286 
	C506.746063,605.177307 520.677979,602.911316 534.668274,601.691162 
	C540.686584,601.166260 544.948364,598.800781 547.427734,593.142151 
	C547.992615,591.852905 549.706970,591.067322 550.892273,590.049927 
z"/>
<path fill="#FC6171" opacity="1.000000" stroke="none" 
	d="
M380.911865,410.023987 
	C381.709717,409.944611 382.507538,409.865234 383.953339,410.171265 
	C386.418365,410.704498 388.235413,410.852356 390.077179,411.349304 
	C395.834991,415.099396 401.221283,419.451782 407.376221,421.695923 
	C418.856659,425.881775 430.814453,428.744171 442.501740,432.387787 
	C445.111481,433.201385 447.573242,434.752808 449.847168,436.332916 
	C457.966064,441.974518 465.264801,449.066559 475.718170,450.435455 
	C476.341675,450.517090 476.943878,450.951599 477.503082,451.305542 
	C488.349579,458.170807 499.610229,463.843658 512.641541,465.453156 
	C521.949646,466.602753 531.172791,468.440033 540.433838,469.970459 
	C541.244690,478.019073 542.055603,486.067688 542.375366,494.555298 
	C536.111633,495.327515 530.337097,495.631683 524.566956,496.003632 
	C520.451660,496.268921 516.338013,496.928741 512.231140,496.871490 
	C505.736511,496.780975 499.248230,496.237091 492.909119,495.578918 
	C494.675873,493.393646 496.329895,491.546478 497.896973,489.628296 
	C500.719208,486.173737 501.688843,482.345764 500.251587,477.982910 
	C496.650726,467.052368 484.224945,465.200867 475.407501,474.065216 
	C469.856506,479.645782 463.871002,484.794098 458.031616,489.776215 
	C455.400940,487.570770 453.016022,485.315887 450.198364,483.960876 
	C443.222443,480.606201 436.027283,477.710632 428.962646,474.536133 
	C425.020905,472.764954 421.132111,470.868103 417.274902,468.918213 
	C406.777924,463.611847 396.109650,458.596375 385.925720,452.741211 
	C381.578522,450.241791 376.020538,448.166199 374.989655,441.959106 
	C378.288300,439.196838 379.313507,435.699677 379.195374,431.412750 
	C379.004883,424.500641 379.354126,417.573669 379.918304,410.544281 
	C380.652222,410.518494 380.835754,410.381287 380.911865,410.023987 
z"/>
<path fill="#FA4B88" opacity="1.000000" stroke="none" 
	d="
M374.625610,442.034058 
	C376.020538,448.166199 381.578522,450.241791 385.925720,452.741211 
	C396.109650,458.596375 406.777924,463.611847 417.274902,468.918213 
	C421.132111,470.868103 425.020905,472.764954 428.962646,474.536133 
	C436.027283,477.710632 443.222443,480.606201 450.198364,483.960876 
	C453.016022,485.315887 455.400940,487.570770 457.883850,490.073425 
	C450.861023,497.413300 443.937195,504.095856 436.781799,510.549591 
	C429.849548,506.777313 423.511871,501.963989 416.381012,499.925507 
	C393.831512,493.479370 374.779541,480.188110 354.180939,469.922455 
	C340.847748,463.277679 328.080902,454.470276 312.066956,455.372528 
	C311.224823,456.494171 310.301880,457.723450 309.378937,458.952759 
	C310.002655,449.553497 310.422241,440.134888 311.310364,430.760681 
	C312.117737,422.238831 315.439056,415.128418 324.651093,412.101044 
	C326.791870,413.773560 328.283569,415.363953 330.068146,416.490265 
	C337.311005,421.061584 344.666138,425.454651 351.932831,429.988739 
	C354.983673,431.892365 357.917755,433.983154 360.904877,435.988892 
	C362.334503,437.931305 363.629913,439.992676 365.223328,441.789886 
	C368.043976,444.971436 371.163574,444.345612 374.625610,442.034058 
z"/>
<path fill="#8337D5" opacity="1.000000" stroke="none" 
	d="
M550.963928,589.662109 
	C549.706970,591.067322 547.992615,591.852905 547.427734,593.142151 
	C544.948364,598.800781 540.686584,601.166260 534.668274,601.691162 
	C520.677979,602.911316 506.746063,605.177307 492.739594,605.730286 
	C478.490021,606.292847 464.148346,605.792786 449.904266,604.871948 
	C435.077606,603.913330 420.350922,601.324585 405.522186,600.506348 
	C391.572205,599.736572 378.296051,596.168823 365.401825,591.684448 
	C347.430878,585.434631 329.332275,579.141418 313.126221,568.721436 
	C311.174683,567.466614 309.265259,565.750000 307.113312,565.289612 
	C303.202911,564.453003 301.589020,562.327637 301.325928,558.307251 
	C301.290833,554.956726 301.528198,551.867981 302.306335,548.387451 
	C305.352783,548.634460 308.076782,548.844910 310.324249,549.990356 
	C317.839783,553.820557 324.782990,559.227905 332.673492,561.780090 
	C353.267914,568.441345 374.222961,574.002441 395.116394,579.700684 
	C397.120270,580.247253 399.699768,578.683228 402.355927,578.092407 
	C403.800018,578.414185 404.900269,578.742615 406.068787,579.429871 
	C407.527924,580.541138 408.857788,581.787659 410.319244,581.967957 
	C422.117615,583.423828 433.924591,585.587219 445.759766,585.796753 
	C466.852814,586.170105 487.970642,585.453003 509.070953,584.911560 
	C515.324890,584.751099 521.583984,583.848267 527.787964,582.929565 
	C535.178711,581.835144 542.442627,578.691223 550.004761,582.420532 
	C550.302856,584.171448 550.593750,585.548523 550.884583,586.925537 
	C550.934937,587.708435 550.985229,588.491394 550.963928,589.662109 
z"/>
<path fill="#FD731C" opacity="1.000000" stroke="none" 
	d="
M1080.602539,494.292450 
	C1088.173218,500.106750 1088.884399,508.094696 1088.210205,516.211487 
	C1087.370117,526.324646 1085.865356,536.382629 1084.640991,546.463623 
	C1084.019043,551.585999 1083.279785,556.696899 1082.792358,561.831848 
	C1082.524170,564.659180 1081.475342,565.902649 1078.428101,565.803162 
	C1072.145996,565.598022 1065.852539,565.741455 1059.241455,565.741455 
	C1061.053711,550.802185 1062.740356,536.619324 1064.507935,522.446533 
	C1065.389526,515.377808 1063.996460,511.351349 1059.996338,510.018280 
	C1055.354126,508.471222 1050.629150,510.510162 1047.668335,516.591614 
	C1045.454834,521.137939 1043.922607,526.208862 1043.124146,531.211731 
	C1041.343750,542.367493 1040.212524,553.626892 1038.763794,565.270508 
	C1031.256958,565.270508 1023.878784,565.270508 1015.705994,565.270508 
	C1020.206665,529.761292 1024.692017,494.372437 1029.240967,458.483002 
	C1036.819580,457.960510 1044.198364,457.451782 1052.433105,456.884064 
	C1050.356079,472.293518 1048.413330,486.706451 1046.470459,501.119415 
	C1056.452148,491.283386 1067.256104,487.393768 1080.602539,494.292450 
z"/>
<path fill="#FD731C" opacity="1.000000" stroke="none" 
	d="
M1200.112061,500.992126 
	C1201.532593,500.418671 1203.048706,499.614014 1204.238525,498.470001 
	C1211.662720,491.331238 1220.492432,489.347046 1230.073853,492.315735 
	C1239.641968,495.280273 1244.295044,502.886017 1245.935913,512.325317 
	C1249.383179,532.156067 1241.377808,550.956604 1225.765747,560.290222 
	C1218.211182,564.806702 1210.878540,566.113037 1194.247559,565.763245 
	C1193.442993,572.555176 1192.332031,579.409912 1191.916870,586.306519 
	C1191.630981,591.057739 1190.364380,593.501770 1185.001831,593.313904 
	C1179.599243,593.124451 1174.162354,593.909119 1168.291504,594.296631 
	C1172.238037,560.348450 1176.103516,527.097778 1180.017822,493.426697 
	C1186.063965,493.426697 1192.654907,493.426697 1200.056763,493.426697 
	C1200.056763,495.779419 1200.056763,498.191742 1200.112061,500.992126 
M1197.273804,540.863831 
	C1197.066040,543.804565 1196.858276,546.745300 1196.657104,549.591919 
	C1202.386841,551.809204 1207.131470,551.019470 1211.689087,547.789429 
	C1220.520386,541.530457 1225.274536,524.271057 1220.751953,514.412720 
	C1218.199219,508.848206 1211.500977,506.859833 1207.142822,511.125427 
	C1204.079834,514.123413 1201.436768,518.189148 1200.201904,522.261963 
	C1198.484985,527.925171 1198.261597,534.041199 1197.273804,540.863831 
z"/>
<path fill="#E543A1" opacity="1.000000" stroke="none" 
	d="
M309.256714,459.386292 
	C310.301880,457.723450 311.224823,456.494171 312.066956,455.372528 
	C328.080902,454.470276 340.847748,463.277679 354.180939,469.922455 
	C374.779541,480.188110 393.831512,493.479370 416.381012,499.925507 
	C423.511871,501.963989 429.849548,506.777313 436.495850,510.741455 
	C428.812866,519.242310 421.184235,527.322510 413.348755,535.621765 
	C410.784973,533.246704 409.419678,532.061523 408.143799,530.786865 
	C400.011536,522.662476 391.310547,515.015320 383.919098,506.263184 
	C373.094757,493.446259 351.231354,498.350281 346.785797,515.024109 
	C344.585846,514.715149 342.662811,514.767944 341.062836,514.074890 
	C332.011047,510.153839 323.076141,505.961975 314.010193,502.075165 
	C311.512939,501.004517 308.703308,500.662567 306.037048,499.986267 
	C307.069519,486.597443 308.101990,473.208649 309.256714,459.386292 
z"/>
<path fill="#FE7361" opacity="1.000000" stroke="none" 
	d="
M540.464783,469.506531 
	C531.172791,468.440033 521.949646,466.602753 512.641541,465.453156 
	C499.610229,463.843658 488.349579,458.170807 477.503082,451.305542 
	C476.943878,450.951599 476.341675,450.517090 475.718170,450.435455 
	C465.264801,449.066559 457.966064,441.974518 449.847168,436.332916 
	C447.573242,434.752808 445.111481,433.201385 442.501740,432.387787 
	C430.814453,428.744171 418.856659,425.881775 407.376221,421.695923 
	C401.221283,419.451782 395.834991,415.099396 390.539612,411.335144 
	C393.466797,410.971619 395.962952,411.087769 398.444275,410.945618 
	C402.982727,410.685638 407.512482,410.272980 412.045837,409.923950 
	C413.745300,409.854065 415.444794,409.784180 417.827209,410.125732 
	C421.354675,410.336456 424.199188,410.135742 427.043671,409.935059 
	C431.373108,409.856140 435.702545,409.777252 440.773132,410.119751 
	C445.899475,410.691589 450.288574,411.026917 454.668549,410.933563 
	C458.151184,410.859344 461.622711,410.261230 465.099152,409.895660 
	C465.514038,409.828094 465.928955,409.760529 466.795898,410.093353 
	C467.587494,410.761108 467.927063,411.028473 468.266602,411.295837 
	C468.490875,418.715149 468.437836,426.158569 469.079132,433.541656 
	C469.327148,436.397369 470.508636,439.769653 472.462646,441.683807 
	C473.933716,443.124878 477.452667,443.298615 479.813354,442.819946 
	C483.583069,442.055542 486.241852,439.493195 486.413757,435.220551 
	C486.553497,431.748108 486.626556,428.272949 487.147949,424.114258 
	C487.712677,420.628357 488.061676,417.819000 487.949066,415.028290 
	C487.829163,412.056488 488.920044,411.314514 491.885529,410.845398 
	C496.599365,410.099731 499.053162,413.597931 502.439819,415.257935 
	C509.116455,418.530640 515.544922,422.319000 522.272949,425.474243 
	C526.971680,427.677795 531.997681,429.183380 536.877502,431.000702 
	C538.083557,443.681335 539.289673,456.362000 540.464783,469.506531 
z"/>
<path fill="#FD5429" opacity="1.000000" stroke="none" 
	d="
M983.997192,477.961426 
	C981.786682,478.659637 979.476990,479.140686 977.383789,480.095886 
	C970.531311,483.223083 969.230713,490.331909 974.766968,495.459839 
	C977.157288,497.673920 980.222656,499.200317 983.091675,500.846924 
	C987.556458,503.409302 992.298462,505.525879 996.603333,508.323303 
	C1017.678650,522.018799 1012.995300,550.550659 993.747437,560.658630 
	C974.776001,570.621399 955.279602,568.481567 935.435974,561.656128 
	C937.727417,554.684814 939.829956,548.288147 941.550171,543.054565 
	C950.962952,544.786438 959.780640,546.730286 968.700989,547.874390 
	C971.793457,548.271057 975.360657,547.191956 978.328003,545.904175 
	C985.954773,542.594299 987.343689,534.331360 980.961609,529.015198 
	C977.059814,525.765076 972.235962,523.616272 967.802551,521.013062 
	C966.084167,520.004089 964.262207,519.170410 962.553284,518.146912 
	C951.702454,511.648376 944.459900,503.096130 945.842896,489.408752 
	C947.206665,475.912415 955.528381,468.060852 967.055908,462.733978 
	C968.702515,461.973114 970.504272,461.548157 972.837036,461.239838 
	C978.429993,466.051056 982.459534,471.206573 983.997192,477.961426 
z"/>
<path fill="#F43D7D" opacity="1.000000" stroke="none" 
	d="
M865.698792,516.943665 
	C866.068909,513.565063 866.439026,510.186462 867.119995,506.267090 
	C867.336182,505.153839 867.241516,504.581390 867.146912,504.008942 
	C868.824768,489.635590 870.467896,475.257904 872.252197,460.897766 
	C872.382446,459.849396 873.456055,458.147369 874.224976,458.069397 
	C881.289612,457.352905 888.383850,456.928131 896.048645,456.376770 
	C893.220459,477.975464 890.506653,498.700409 887.782776,519.502380 
	C891.186707,520.758606 893.318726,520.100647 895.211853,517.242676 
	C900.263733,509.616394 905.447571,502.067230 910.893372,494.720459 
	C912.039856,493.173859 914.494019,491.843658 916.408875,491.753326 
	C923.692871,491.409668 931.002747,491.614807 939.554932,491.614807 
	C936.761230,495.183563 934.640625,497.984711 932.423401,500.707245 
	C926.432495,508.063324 920.283875,515.296021 914.494385,522.806274 
	C913.472900,524.131348 913.078979,526.925720 913.759033,528.421387 
	C919.326538,540.665161 925.217468,552.761841 931.334229,565.582581 
	C922.727600,565.582581 914.350342,565.729614 905.991211,565.407104 
	C904.873718,565.364014 903.455872,563.104187 902.846069,561.599731 
	C899.910278,554.356628 897.188721,547.026184 894.420776,539.715515 
	C892.192505,533.830261 891.939453,533.696533 885.413391,535.463440 
	C885.208862,537.588623 885.007324,539.683777 884.209961,541.764893 
	C878.368286,534.984680 872.967529,528.363892 870.679077,519.771484 
	C870.334656,518.478455 867.422913,517.869202 865.698792,516.943665 
z"/>
<path fill="#FD731C" opacity="1.000000" stroke="none" 
	d="
M1163.190063,544.164429 
	C1155.857300,560.992493 1135.703735,569.450012 1120.874146,567.213501 
	C1107.061035,565.130249 1096.501465,555.716370 1095.114136,541.961121 
	C1093.466797,525.629944 1097.273926,510.828796 1110.696899,499.967896 
	C1121.574707,491.166321 1134.158203,488.953156 1147.435791,492.486115 
	C1162.169556,496.406494 1169.963501,510.009888 1167.727051,527.520691 
	C1167.020752,533.051514 1164.851318,538.395508 1163.190063,544.164429 
M1119.572754,528.211365 
	C1119.454590,532.191284 1119.134888,536.177856 1119.265747,540.149536 
	C1119.457397,545.963684 1122.573242,550.259644 1127.231201,551.285767 
	C1132.497314,552.445862 1135.961670,549.337036 1138.291016,545.384399 
	C1143.635132,536.316101 1144.976562,526.329895 1143.435791,516.015137 
	C1142.805542,511.796051 1140.482056,508.615570 1135.905518,507.745483 
	C1131.466431,506.901550 1127.560791,508.501404 1125.603882,512.182800 
	C1123.078979,516.932678 1121.663086,522.271973 1119.572754,528.211365 
z"/>
<path fill="#6437D9" opacity="1.000000" stroke="none" 
	d="
M648.239868,558.081543 
	C645.619507,559.909851 642.999207,561.738159 640.020752,563.816284 
	C645.168518,568.906921 651.717896,571.509949 658.398499,573.934448 
	C662.152710,575.296936 665.829224,576.873352 670.330872,578.668457 
	C652.475647,590.905334 632.308533,587.866699 620.420654,571.978455 
	C618.373962,569.242981 616.310974,567.934875 612.862671,567.432678 
	C591.124390,564.267151 578.301514,549.830017 577.424500,526.067871 
	C577.090515,517.020996 579.597107,507.869293 581.227600,498.657654 
	C582.663025,499.399170 583.572693,500.450378 584.717651,501.058441 
	C587.730652,502.658508 591.180542,503.629089 593.835083,505.661774 
	C597.072021,508.140442 600.205688,509.285339 603.964111,508.448303 
	C604.136353,517.134705 603.254211,525.695374 605.046509,533.653625 
	C607.900696,546.326599 616.487488,550.527649 629.005371,547.587524 
	C635.126648,551.890076 639.968628,558.237183 648.239868,558.081543 
z"/>
<path fill="#9B34C4" opacity="1.000000" stroke="none" 
	d="
M549.997559,582.046631 
	C542.442627,578.691223 535.178711,581.835144 527.787964,582.929565 
	C521.583984,583.848267 515.324890,584.751099 509.070953,584.911560 
	C487.970642,585.453003 466.852814,586.170105 445.759766,585.796753 
	C433.924591,585.587219 422.117615,583.423828 410.319244,581.967957 
	C408.857788,581.787659 407.527924,580.541138 406.462311,579.350098 
	C409.938477,577.668396 413.396362,576.889526 416.160736,575.061707 
	C419.426849,572.902100 422.093781,569.836243 425.278870,567.432251 
	C431.021362,568.133118 436.505432,568.934998 441.989532,568.935059 
	C470.531067,568.935303 499.135284,570.098206 527.509094,565.899353 
	C534.779724,564.823425 541.887146,562.645081 549.069580,560.973206 
	C549.537903,565.194885 550.022583,569.414917 550.468323,573.638977 
	C550.735352,576.169373 550.941528,578.706238 550.852417,581.631714 
	C550.352295,582.031006 550.174927,582.038818 549.997559,582.046631 
z"/>
<path fill="#E543A1" opacity="1.000000" stroke="none" 
	d="
M543.957397,508.023254 
	C544.362488,512.756897 544.707092,517.496826 545.193604,522.222107 
	C545.527222,525.461609 546.058228,528.680847 546.127197,532.533813 
	C544.408630,534.068176 543.143799,535.605774 541.706421,535.788818 
	C529.605957,537.329773 517.502380,539.059387 505.342377,539.854919 
	C495.246704,540.515381 485.072784,540.055786 474.934631,539.966248 
	C467.030762,539.896484 459.128571,539.632874 451.432861,539.187378 
	C460.746399,529.279419 469.852692,519.639404 479.338104,510.162445 
	C480.672150,510.549896 481.622040,510.944672 482.582703,510.972839 
	C495.297302,511.346130 508.030548,512.206787 520.722778,511.803009 
	C528.499817,511.555573 536.214661,509.349640 543.957397,508.023254 
z"/>
<path fill="#F43D7D" opacity="1.000000" stroke="none" 
	d="
M412.461548,372.025696 
	C395.194427,376.838715 384.045471,387.663330 378.620087,404.162720 
	C377.410095,407.842560 375.973785,409.416168 372.113861,408.955933 
	C369.516785,408.646301 366.852966,408.897003 364.219025,408.897003 
	C364.490631,387.790283 386.596466,358.277832 420.876831,356.993744 
	C452.065308,355.825531 481.579956,379.719818 483.238312,408.855927 
	C479.459473,408.855927 475.651337,409.216095 471.982727,408.658447 
	C470.717651,408.466156 469.327301,406.143219 468.795898,404.529602 
	C462.517395,385.463959 449.515808,374.167938 429.717987,371.312012 
	C424.245453,370.522583 418.493378,371.671112 412.461548,372.025696 
z"/>
<path fill="#9B34C4" opacity="1.000000" stroke="none" 
	d="
M599.700073,470.348328 
	C617.832825,453.695709 649.457764,454.066742 664.348206,471.367920 
	C675.074951,483.831421 676.430115,498.680908 673.691406,514.623596 
	C670.440369,512.816711 667.495544,510.825348 664.965759,508.400909 
	C658.742371,502.436646 656.646729,502.414917 651.088318,508.723694 
	C650.591675,509.287445 649.803894,509.594757 649.088379,509.558899 
	C648.570801,503.828522 648.813049,498.383850 647.531189,493.325378 
	C643.612061,477.859680 630.817078,473.337280 617.380127,482.310852 
	C612.931213,479.840942 608.805359,477.595612 604.886414,475.033752 
	C602.959900,473.774353 601.416748,471.928680 599.700073,470.348328 
z"/>
<path fill="#B03CBF" opacity="1.000000" stroke="none" 
	d="
M302.971924,535.987610 
	C303.550537,528.255005 304.129150,520.522400 305.183533,512.258179 
	C306.601990,511.581696 307.732300,511.024353 308.458679,511.354858 
	C316.863586,515.179321 325.297150,518.960571 333.534149,523.126892 
	C338.571533,525.674744 343.328491,528.718323 349.566711,528.128967 
	C351.393799,530.236877 352.847076,532.266602 354.592041,534.003235 
	C364.677460,544.040344 374.831787,554.008240 384.584015,564.046997 
	C382.153351,564.066772 379.997009,564.441895 378.067535,563.941772 
	C369.609375,561.749634 361.238647,559.222534 352.795258,556.970398 
	C341.081543,553.846008 329.687897,550.065857 319.135345,543.846802 
	C314.001343,540.821167 309.867035,535.464294 302.971924,535.987610 
z"/>
<path fill="#BD38AE" opacity="1.000000" stroke="none" 
	d="
M818.054810,528.013855 
	C818.106750,546.423584 827.066772,552.836731 844.805359,547.168518 
	C846.205627,546.721069 847.624390,546.331177 849.517456,545.771912 
	C849.517456,551.834229 849.517456,557.519470 849.517456,563.604797 
	C837.821411,567.509521 825.824707,568.867798 813.652344,565.065369 
	C801.986511,561.421021 794.268677,550.729370 793.828735,538.532898 
	C793.467834,528.527832 794.529480,518.926392 800.895508,510.148865 
	C808.938171,512.705139 815.131226,516.943726 819.049805,524.013977 
	C818.999756,524.463196 818.949707,524.912476 818.503784,525.729614 
	C818.090210,526.736328 818.072510,527.375061 818.054810,528.013855 
z"/>
<path fill="#B03CBF" opacity="1.000000" stroke="none" 
	d="
M549.114319,560.526306 
	C541.887146,562.645081 534.779724,564.823425 527.509094,565.899353 
	C499.135284,570.098206 470.531067,568.935303 441.989532,568.935059 
	C436.505432,568.934998 431.021362,568.133118 425.427368,567.125854 
	C429.828735,561.909119 434.340027,557.267700 438.951019,553.047119 
	C440.815521,553.978638 442.585358,554.949036 444.344360,554.929749 
	C464.739502,554.706848 485.140869,554.570679 505.523285,553.892151 
	C514.390808,553.596924 523.212463,552.044373 532.066528,551.181824 
	C537.400269,550.662231 542.756226,550.371216 548.102234,549.977478 
	C548.454529,553.344788 548.806763,556.712097 549.114319,560.526306 
z"/>
<path fill="#BD38AE" opacity="1.000000" stroke="none" 
	d="
M548.142700,549.524780 
	C542.756226,550.371216 537.400269,550.662231 532.066528,551.181824 
	C523.212463,552.044373 514.390808,553.596924 505.523285,553.892151 
	C485.140869,554.570679 464.739502,554.706848 444.344360,554.929749 
	C442.585358,554.949036 440.815521,553.978638 439.101593,552.765015 
	C443.176849,547.859863 447.201263,543.657593 451.225647,539.455383 
	C459.128571,539.632874 467.030762,539.896484 474.934631,539.966248 
	C485.072784,540.055786 495.246704,540.515381 505.342377,539.854919 
	C517.502380,539.059387 529.605957,537.329773 541.706421,535.788818 
	C543.143799,535.605774 544.408630,534.068176 546.103577,532.958984 
	C547.030151,538.197083 547.606628,543.634644 548.142700,549.524780 
z"/>
<path fill="#8337D5" opacity="1.000000" stroke="none" 
	d="
M649.151245,510.021179 
	C649.803894,509.594757 650.591675,509.287445 651.088318,508.723694 
	C656.646729,502.414917 658.742371,502.436646 664.965759,508.400909 
	C667.495544,510.825348 670.440369,512.816711 673.555786,515.016724 
	C671.778931,530.607300 665.980835,544.342407 653.185791,554.983826 
	C652.089539,555.511108 651.651794,555.940186 651.214050,556.369263 
	C651.214050,556.369263 651.122009,556.252380 650.913574,556.264343 
	C650.483765,556.563416 650.262329,556.850525 650.040955,557.137634 
	C650.040955,557.137634 650.034851,557.037415 649.839111,557.120972 
	C649.426880,557.461121 649.210449,557.717834 648.994019,557.974548 
	C648.994080,557.974548 648.626221,558.093933 648.433044,558.087769 
	C639.968628,558.237183 635.126648,551.890076 629.291687,547.385742 
	C633.474121,543.071228 638.815430,539.991089 640.974548,535.410828 
	C644.734192,527.434998 646.531433,518.534180 649.151245,510.021179 
z"/>
<path fill="#BD38AE" opacity="1.000000" stroke="none" 
	d="
M762.103882,531.037964 
	C763.574158,518.180603 765.044434,505.323212 766.562805,492.045471 
	C774.309143,492.045471 781.818359,492.045471 789.799133,492.045471 
	C787.465210,510.306366 785.173035,528.240051 782.443237,546.530884 
	C775.371643,541.604675 768.737732,536.321350 762.103882,531.037964 
z"/>
<path fill="#9B34C4" opacity="1.000000" stroke="none" 
	d="
M302.847046,536.363770 
	C309.867035,535.464294 314.001343,540.821167 319.135345,543.846802 
	C329.687897,550.065857 341.081543,553.846008 352.795258,556.970398 
	C361.238647,559.222534 369.609375,561.749634 378.067535,563.941772 
	C379.997009,564.441895 382.153351,564.066772 384.897095,564.171509 
	C391.063293,568.865356 396.537689,573.482178 402.012085,578.098999 
	C399.699768,578.683228 397.120270,580.247253 395.116394,579.700684 
	C374.222961,574.002441 353.267914,568.441345 332.673492,561.780090 
	C324.782990,559.227905 317.839783,553.820557 310.324249,549.990356 
	C308.076782,548.844910 305.352783,548.634460 302.431030,547.995544 
	C301.985443,547.542725 301.955963,547.090027 302.219635,546.166260 
	C302.402649,545.144897 302.292450,544.594604 302.182251,544.044250 
	C302.362244,541.609497 302.542236,539.174683 302.847046,536.363770 
z"/>
<path fill="#E543A1" opacity="1.000000" stroke="none" 
	d="
M819.259277,523.744019 
	C815.131226,516.943726 808.938171,512.705139 801.156555,509.937988 
	C808.585632,497.622925 820.244324,491.720734 834.326355,490.287445 
	C842.267273,489.479187 850.212036,489.809723 858.213867,493.445312 
	C856.526917,499.336121 854.908997,504.986115 853.293457,510.627747 
	C833.861694,505.525146 825.382874,508.820557 819.259277,523.744019 
z"/>
<path fill="#FA4B88" opacity="1.000000" stroke="none" 
	d="
M544.000061,507.571472 
	C536.214661,509.349640 528.499817,511.555573 520.722778,511.803009 
	C508.030548,512.206787 495.297302,511.346130 482.582703,510.972839 
	C481.622040,510.944672 480.672150,510.549896 479.438049,509.838684 
	C483.691681,504.862946 488.224487,500.374023 492.757263,495.885071 
	C499.248230,496.237091 505.736511,496.780975 512.231140,496.871490 
	C516.338013,496.928741 520.451660,496.268921 524.566956,496.003632 
	C530.337097,495.631683 536.111633,495.327515 542.310547,494.991302 
	C543.172119,499.032074 543.607422,503.075897 544.000061,507.571472 
z"/>
<path fill="#E543A1" opacity="1.000000" stroke="none" 
	d="
M865.491211,517.257202 
	C867.422913,517.869202 870.334656,518.478455 870.679077,519.771484 
	C872.967529,528.363892 878.368286,534.984680 883.912842,541.936157 
	C884.167664,542.550537 884.123840,542.979492 883.735474,543.957397 
	C883.623596,546.018127 883.856262,547.530090 884.088928,549.041992 
	C883.659790,554.311340 883.230591,559.580688 882.763062,565.321228 
	C875.093384,565.321228 867.601746,565.321228 859.453674,565.321228 
	C861.404358,549.344055 863.343933,533.457397 865.491211,517.257202 
z"/>
<path fill="#8337D5" opacity="1.000000" stroke="none" 
	d="
M599.397278,470.519104 
	C601.416748,471.928680 602.959900,473.774353 604.886414,475.033752 
	C608.805359,477.595612 612.931213,479.840942 617.170288,482.595154 
	C614.541748,486.869781 611.250854,490.520172 609.019226,494.731842 
	C606.823547,498.875702 605.702332,503.588898 604.109680,508.052277 
	C600.205688,509.285339 597.072021,508.140442 593.835083,505.661774 
	C591.180542,503.629089 587.730652,502.658508 584.717651,501.058441 
	C583.572693,500.450378 582.663025,499.399170 581.397034,498.309265 
	C584.528381,487.236938 590.130310,477.861481 599.397278,470.519104 
z"/>
<path fill="#8337D5" opacity="1.000000" stroke="none" 
	d="
M706.044922,544.012207 
	C707.489746,545.356628 708.934570,546.701050 710.680420,548.607788 
	C711.341309,554.309143 712.078796,559.235962 717.824463,561.348816 
	C712.713196,565.220520 707.095215,567.463257 700.538269,567.171875 
	C690.282166,566.716064 683.194336,560.763062 682.030884,550.516846 
	C681.439758,545.311218 682.140625,539.958862 682.560547,534.058655 
	C683.094421,533.215515 683.315308,532.974121 683.569214,532.774902 
	C683.597961,532.752319 683.833130,532.949402 683.937744,533.073853 
	C684.615417,533.880371 685.544067,535.504395 685.915283,535.384888 
	C690.935486,533.768311 693.819336,536.973694 696.504028,540.113098 
	C699.107361,543.157349 702.078308,544.631226 706.044922,544.012207 
z"/>
<path fill="#9B34C4" opacity="1.000000" stroke="none" 
	d="
M718.105347,561.233398 
	C712.078796,559.235962 711.341309,554.309143 710.973206,548.777344 
	C720.122986,548.761353 722.526489,541.753174 725.797363,535.274170 
	C730.694336,537.932068 735.080627,540.675293 739.646912,543.076050 
	C742.108337,544.370117 744.878174,545.077820 747.508911,546.050110 
	C746.955811,552.314575 746.402771,558.579102 745.820007,565.180054 
	C739.266052,565.180054 732.873657,565.180054 726.077026,565.180054 
	C726.077026,561.669189 726.077026,558.269043 726.077026,553.975952 
	C723.079224,556.759888 720.732727,558.938965 718.105347,561.233398 
z"/>
<path fill="#FD731C" opacity="1.000000" stroke="none" 
	d="
M984.434692,478.023376 
	C982.459534,471.206573 978.429993,466.051056 973.220825,461.242523 
	C987.096863,456.821625 1000.804321,458.036652 1014.802124,463.912231 
	C1012.859314,470.372223 1010.978455,476.626007 1009.402710,481.865326 
	C1000.724426,480.528046 992.798340,479.306671 984.434692,478.023376 
z"/>
<path fill="#B03CBF" opacity="1.000000" stroke="none" 
	d="
M761.931152,531.390625 
	C768.737732,536.321350 775.371643,541.604675 782.322876,546.939026 
	C782.038513,552.926086 781.436951,558.862061 780.791016,565.234985 
	C773.078003,565.234985 765.556274,565.234985 757.396179,565.234985 
	C758.856018,554.026855 760.307251,542.885071 761.931152,531.390625 
z"/>
<path fill="#BD38AE" opacity="1.000000" stroke="none" 
	d="
M728.407959,516.972473 
	C729.283447,508.730255 730.158936,500.488007 731.066101,491.947571 
	C738.930786,491.947571 746.472046,491.947571 754.471497,491.947571 
	C753.060181,502.918915 751.686035,513.601562 749.797363,524.602173 
	C746.895996,522.489624 744.602844,519.957458 742.102417,517.650085 
	C737.072815,513.008728 733.380798,512.884827 728.407959,516.972473 
z"/>
<path fill="#9B34C4" opacity="1.000000" stroke="none" 
	d="
M706.027649,543.543091 
	C702.078308,544.631226 699.107361,543.157349 696.504028,540.113098 
	C693.819336,536.973694 690.935486,533.768311 685.915283,535.384888 
	C685.544067,535.504395 684.615417,533.880371 683.937744,533.073853 
	C683.833130,532.949402 683.597961,532.752319 683.569214,532.774902 
	C683.315308,532.974121 683.094421,533.215515 682.710266,533.640686 
	C683.379517,526.827759 684.202332,519.818542 685.511963,512.406067 
	C687.233521,511.616547 688.450867,510.994843 689.707031,510.902588 
	C691.346558,510.782227 693.496338,510.462250 694.589417,511.308929 
	C698.892212,514.641602 702.866882,518.398010 706.963318,521.997131 
	C706.815430,523.495483 706.667542,524.993774 706.276489,527.104614 
	C706.018982,528.134277 706.004700,528.551514 705.990417,528.968750 
	C705.997070,533.670471 706.003723,538.372253 706.027649,543.543091 
z"/>
<path fill="#E543A1" opacity="1.000000" stroke="none" 
	d="
M783.820801,480.858154 
	C775.653198,481.675232 770.498596,479.141907 768.276001,473.473480 
	C766.161682,468.081177 768.114319,461.523560 772.905945,457.924103 
	C777.744934,454.289001 784.408508,454.147186 789.155273,457.574005 
	C793.226929,460.513428 794.474854,464.669922 793.919189,469.393829 
	C793.227295,475.275269 789.690613,478.912384 783.820801,480.858154 
z"/>
<path fill="#B03CBF" opacity="1.000000" stroke="none" 
	d="
M707.131470,521.642212 
	C702.866882,518.398010 698.892212,514.641602 694.589417,511.308929 
	C693.496338,510.462250 691.346558,510.782227 689.707031,510.902588 
	C688.450867,510.994843 687.233521,511.616547 685.620422,512.006836 
	C685.913086,505.434387 686.584167,498.857910 687.292480,491.916321 
	C695.111511,491.916321 702.666565,491.916321 711.126831,491.916321 
	C709.841858,501.777618 708.570740,511.532471 707.131470,521.642212 
z"/>
<path fill="#B03CBF" opacity="1.000000" stroke="none" 
	d="
M728.268677,517.368469 
	C733.380798,512.884827 737.072815,513.008728 742.102417,517.650085 
	C744.602844,519.957458 746.895996,522.489624 749.626587,524.954590 
	C749.253174,531.735229 748.536072,538.481384 747.663940,545.638794 
	C744.878174,545.077820 742.108337,544.370117 739.646912,543.076050 
	C735.080627,540.675293 730.694336,537.932068 726.028687,535.006287 
	C726.592590,529.042236 727.360962,523.403381 728.268677,517.368469 
z"/>
<path fill="#F43D7D" opacity="1.000000" stroke="none" 
	d="
M360.955688,435.523376 
	C357.917755,433.983154 354.983673,431.892365 351.932831,429.988739 
	C344.666138,425.454651 337.311005,421.061584 330.068146,416.490265 
	C328.283569,415.363953 326.791870,413.773560 325.015533,412.070068 
	C336.612579,407.775513 348.633240,410.408997 361.006500,409.528259 
	C361.006500,418.523407 361.006500,426.790649 360.955688,435.523376 
z"/>
<path fill="#BD38AE" opacity="1.000000" stroke="none" 
	d="
M349.327576,527.915405 
	C343.328491,528.718323 338.571533,525.674744 333.534149,523.126892 
	C325.297150,518.960571 316.863586,515.179321 308.458679,511.354858 
	C307.732300,511.024353 306.601990,511.581696 305.333832,511.872803 
	C305.269745,508.268524 305.531097,504.517975 305.914764,500.376862 
	C308.703308,500.662567 311.512939,501.004517 314.010193,502.075165 
	C323.076141,505.961975 332.011047,510.153839 341.062836,514.074890 
	C342.662811,514.767944 344.585846,514.715149 346.806580,515.447388 
	C347.944855,519.897156 348.636230,523.906250 349.327576,527.915405 
z"/>
<path fill="#FD731C" opacity="1.000000" stroke="none" 
	d="
M536.922058,430.583923 
	C531.997681,429.183380 526.971680,427.677795 522.272949,425.474243 
	C515.544922,422.319000 509.116455,418.530640 502.439819,415.257935 
	C499.053162,413.597931 496.599365,410.099731 491.885529,410.845398 
	C488.920044,411.314514 487.829163,412.056488 487.949066,415.028290 
	C488.061676,417.819000 487.712677,420.628357 487.267853,423.718872 
	C486.968933,419.403534 486.968933,414.798798 486.968933,410.023193 
	C497.911560,410.023193 508.719360,409.351929 519.402344,410.218811 
	C529.362000,411.027039 536.042419,419.482544 536.922058,430.583923 
z"/>
<path fill="#FD5429" opacity="1.000000" stroke="none" 
	d="
M411.576355,409.869141 
	C407.512482,410.272980 402.982727,410.685638 398.444275,410.945618 
	C395.962952,411.087769 393.466797,410.971619 390.514893,410.986084 
	C388.235413,410.852356 386.418365,410.704498 384.342133,410.284729 
	C393.090942,409.946625 402.098907,409.880432 411.576355,409.869141 
z"/>
<path fill="#FD5429" opacity="1.000000" stroke="none" 
	d="
M464.624786,409.837585 
	C461.622711,410.261230 458.151184,410.859344 454.668549,410.933563 
	C450.288574,411.026917 445.899475,410.691589 441.222473,410.230469 
	C448.670563,409.873016 456.410492,409.826263 464.624786,409.837585 
z"/>
<path fill="#FD5429" opacity="1.000000" stroke="none" 
	d="
M426.591797,409.882172 
	C424.199188,410.135742 421.354675,410.336456 418.239075,410.241180 
	C420.691925,409.906586 423.415894,409.867950 426.591797,409.882172 
z"/>
<path fill="#6437D9" opacity="1.000000" stroke="none" 
	d="
M550.004761,582.420532 
	C550.174927,582.038818 550.352295,582.031006 550.795837,582.035156 
	C551.042847,583.467346 551.023682,584.887573 550.944580,586.616699 
	C550.593750,585.548523 550.302856,584.171448 550.004761,582.420532 
z"/>
<path fill="#F43D7D" opacity="1.000000" stroke="none" 
	d="
M884.166504,548.627991 
	C883.856262,547.530090 883.623596,546.018127 883.655579,544.270752 
	C884.028137,545.428223 884.136108,546.821106 884.166504,548.627991 
z"/>
<path fill="#E543A1" opacity="1.000000" stroke="none" 
	d="
M818.224121,527.796753 
	C818.072510,527.375061 818.090210,526.736328 818.369873,526.042664 
	C818.552368,526.518372 818.472839,527.049011 818.224121,527.796753 
z"/>
<path fill="#B03CBF" opacity="1.000000" stroke="none" 
	d="
M706.119019,528.782471 
	C706.004700,528.551514 706.018982,528.134277 706.095459,527.520081 
	C706.187622,527.747498 706.217590,528.171814 706.119019,528.782471 
z"/>
<path fill="#8337D5" opacity="1.000000" stroke="none" 
	d="
M302.097504,544.360229 
	C302.292450,544.594604 302.402649,545.144897 302.307129,545.835205 
	C302.071838,545.542175 302.042297,545.109253 302.097504,544.360229 
z"/>
<path fill="#6437D9" opacity="1.000000" stroke="none" 
	d="
M651.527222,556.341003 
	C651.651794,555.940186 652.089539,555.511108 652.869507,555.074097 
	C652.754639,555.481628 652.297546,555.897156 651.527222,556.341003 
z"/>
<path fill="#E543A1" opacity="1.000000" stroke="none" 
	d="
M867.040955,504.332031 
	C867.241516,504.581390 867.336182,505.153839 867.210938,505.865417 
	C866.972290,505.554718 866.953613,505.104919 867.040955,504.332031 
z"/>
<path fill="#FD5429" opacity="1.000000" stroke="none" 
	d="
M468.234497,410.925293 
	C467.927063,411.028473 467.587494,410.761108 467.094788,410.209503 
	C467.361877,410.135101 467.782104,410.344940 468.234497,410.925293 
z"/>
<path fill="#6437D9" opacity="1.000000" stroke="none" 
	d="
M650.312500,557.060669 
	C650.262329,556.850525 650.483765,556.563416 650.985596,556.245605 
	C651.038696,556.471130 650.811401,556.727417 650.312500,557.060669 
z"/>
<path fill="#6437D9" opacity="1.000000" stroke="none" 
	d="
M649.277100,557.987793 
	C649.210449,557.717834 649.426880,557.461121 649.889038,557.125793 
	C649.943237,557.365051 649.751648,557.682983 649.277100,557.987793 
z"/>
<path fill="#FD5429" opacity="1.000000" stroke="none" 
	d="
M380.708679,410.005005 
	C380.835754,410.381287 380.652222,410.518494 380.267944,410.330322 
	C380.174652,410.225037 380.505524,409.986023 380.708679,410.005005 
z"/>
<path fill="#FEFEFE" opacity="1.000000" stroke="none" 
	d="
M349.566711,528.128967 
	C348.636230,523.906250 347.944855,519.897156 347.232666,515.464722 
	C351.231354,498.350281 373.094757,493.446259 383.919098,506.263184 
	C391.310547,515.015320 400.011536,522.662476 408.143799,530.786865 
	C409.419678,532.061523 410.784973,533.246704 413.348755,535.621765 
	C421.184235,527.322510 428.812866,519.242310 436.727448,510.970276 
	C443.937195,504.095856 450.861023,497.413300 457.932617,490.433533 
	C463.871002,484.794098 469.856506,479.645782 475.407501,474.065216 
	C484.224945,465.200867 496.650726,467.052368 500.251587,477.982910 
	C501.688843,482.345764 500.719208,486.173737 497.896973,489.628296 
	C496.329895,491.546478 494.675873,493.393646 492.909119,495.578918 
	C488.224487,500.374023 483.691681,504.862946 479.058899,509.675598 
	C469.852692,519.639404 460.746399,529.279419 451.432861,539.187378 
	C447.201263,543.657593 443.176849,547.859863 439.001892,552.344116 
	C434.340027,557.267700 429.828735,561.909119 425.168945,566.856934 
	C422.093781,569.836243 419.426849,572.902100 416.160736,575.061707 
	C413.396362,576.889526 409.938477,577.668396 406.394012,578.991272 
	C404.900269,578.742615 403.800018,578.414185 402.355927,578.092407 
	C396.537689,573.482178 391.063293,568.865356 385.275818,564.124023 
	C374.831787,554.008240 364.677460,544.040344 354.592041,534.003235 
	C352.847076,532.266602 351.393799,530.236877 349.566711,528.128967 
z"/>
<path fill="#FEFEFE" opacity="1.000000" stroke="none" 
	d="
M1197.336304,540.413635 
	C1198.261597,534.041199 1198.484985,527.925171 1200.201904,522.261963 
	C1201.436768,518.189148 1204.079834,514.123413 1207.142822,511.125427 
	C1211.500977,506.859833 1218.199219,508.848206 1220.751953,514.412720 
	C1225.274536,524.271057 1220.520386,541.530457 1211.689087,547.789429 
	C1207.131470,551.019470 1202.386841,551.809204 1196.657104,549.591919 
	C1196.858276,546.745300 1197.066040,543.804565 1197.336304,540.413635 
z"/>
<path fill="#FEFEFE" opacity="1.000000" stroke="none" 
	d="
M1119.671143,527.784424 
	C1121.663086,522.271973 1123.078979,516.932678 1125.603882,512.182800 
	C1127.560791,508.501404 1131.466431,506.901550 1135.905518,507.745483 
	C1140.482056,508.615570 1142.805542,511.796051 1143.435791,516.015137 
	C1144.976562,526.329895 1143.635132,536.316101 1138.291016,545.384399 
	C1135.961670,549.337036 1132.497314,552.445862 1127.231201,551.285767 
	C1122.573242,550.259644 1119.457397,545.963684 1119.265747,540.149536 
	C1119.134888,536.177856 1119.454590,532.191284 1119.671143,527.784424 
z"/>
<path fill="#FEFEFE" opacity="1.000000" stroke="none" 
	d="
M603.964111,508.448303 
	C605.702332,503.588898 606.823547,498.875702 609.019226,494.731842 
	C611.250854,490.520172 614.541748,486.869781 617.578613,482.689270 
	C630.817078,473.337280 643.612061,477.859680 647.531189,493.325378 
	C648.813049,498.383850 648.570801,503.828522 649.088379,509.558868 
	C646.531433,518.534180 644.734192,527.434998 640.974548,535.410828 
	C638.815430,539.991089 633.474121,543.071228 629.278931,547.028442 
	C616.487488,550.527649 607.900696,546.326599 605.046509,533.653625 
	C603.254211,525.695374 604.136353,517.134705 603.964111,508.448303 
z"/>
</svg>